<?xml version="1.0" encoding="UTF-8"?>
<svg xmlns="http://www.w3.org/2000/svg" xmlns:xlink="http://www.w3.org/1999/xlink" width="0" height="0">
<defs>
<symbol viewBox="0 0 15 15" fill="none" id="rd/accessibility">
  <path     fill-rule="evenodd"
    clip-rule="evenodd"
    d="M0.877197 7.49984C0.877197 3.84216 3.84234 0.877014 7.50003 0.877014C11.1577 0.877014 14.1229 3.84216 14.1229 7.49984C14.1229 11.1575 11.1577 14.1227 7.50003 14.1227C3.84234 14.1227 0.877197 11.1575 0.877197 7.49984ZM7.50003 1.82701C4.36702 1.82701 1.8272 4.36683 1.8272 7.49984C1.8272 10.6328 4.36702 13.1727 7.50003 13.1727C10.633 13.1727 13.1729 10.6328 13.1729 7.49984C13.1729 4.36683 10.633 1.82701 7.50003 1.82701ZM7.12457 9.00001C7.06994 9.12735 6.33165 11.9592 6.33165 11.9592C6.26018 12.226 5.98601 12.3843 5.71928 12.3128C5.45255 12.2413 5.29425 11.9672 5.36573 11.7004C5.36573 11.7004 6.24661 8.87268 6.24661 8.27007V6.80099L4.28763 6.27608C4.0209 6.20461 3.86261 5.93045 3.93408 5.66371C4.00555 5.39698 4.27972 5.23869 4.54645 5.31016C4.54645 5.31016 6.20042 5.87268 6.84579 5.87268H8.15505C8.80042 5.87268 10.4534 5.31042 10.4534 5.31042C10.7202 5.23895 10.9943 5.39724 11.0658 5.66397C11.1373 5.93071 10.979 6.20487 10.7122 6.27635L8.74661 6.80303V8.27007C8.74661 8.87268 9.62663 11.6971 9.62663 11.6971C9.6981 11.9639 9.5398 12.238 9.27307 12.3095C9.00634 12.381 8.73217 12.2227 8.6607 11.956C8.6607 11.956 7.91994 9.12735 7.86866 9.00001C7.81994 8.87268 7.65006 8.87268 7.65006 8.87268H7.34317C7.34317 8.87268 7.16994 8.87268 7.12457 9.00001ZM7.50043 5.12007C8.12175 5.12007 8.62543 4.61639 8.62543 3.99507C8.62543 3.37375 8.12175 2.87007 7.50043 2.87007C6.87911 2.87007 6.37543 3.37375 6.37543 3.99507C6.37543 4.61639 6.87911 5.12007 7.50043 5.12007Z"
    fill="currentColor"
  ></path>
</symbol>
<symbol viewBox="0 0 15 15" fill="none" id="rd/camera">
  <path     fill-rule="evenodd"
    clip-rule="evenodd"
    d="M2 3C1.44772 3 1 3.44772 1 4V11C1 11.5523 1.44772 12 2 12H13C13.5523 12 14 11.5523 14 11V4C14 3.44772 13.5523 3 13 3H2ZM0 4C0 2.89543 0.895431 2 2 2H13C14.1046 2 15 2.89543 15 4V11C15 12.1046 14.1046 13 13 13H2C0.895431 13 0 12.1046 0 11V4ZM2 4.25C2 4.11193 2.11193 4 2.25 4H4.75C4.88807 4 5 4.11193 5 4.25V5.75454C5 5.89261 4.88807 6.00454 4.75 6.00454H2.25C2.11193 6.00454 2 5.89261 2 5.75454V4.25ZM12.101 7.58421C12.101 9.02073 10.9365 10.1853 9.49998 10.1853C8.06346 10.1853 6.89893 9.02073 6.89893 7.58421C6.89893 6.14769 8.06346 4.98315 9.49998 4.98315C10.9365 4.98315 12.101 6.14769 12.101 7.58421ZM13.101 7.58421C13.101 9.57302 11.4888 11.1853 9.49998 11.1853C7.51117 11.1853 5.89893 9.57302 5.89893 7.58421C5.89893 5.5954 7.51117 3.98315 9.49998 3.98315C11.4888 3.98315 13.101 5.5954 13.101 7.58421Z"
    fill="currentColor"
  ></path>
</symbol>
<symbol viewBox="0 0 15 15" fill="none" id="rd/card-stack">
  <path     fill-rule="evenodd"
    clip-rule="evenodd"
    d="M2 3.5C2 3.22386 2.22386 3 2.5 3H12.5C12.7761 3 13 3.22386 13 3.5V9.5C13 9.77614 12.7761 10 12.5 10H2.5C2.22386 10 2 9.77614 2 9.5V3.5ZM2 10.9146C1.4174 10.7087 1 10.1531 1 9.5V3.5C1 2.67157 1.67157 2 2.5 2H12.5C13.3284 2 14 2.67157 14 3.5V9.5C14 10.1531 13.5826 10.7087 13 10.9146V11.5C13 12.3284 12.3284 13 11.5 13H3.5C2.67157 13 2 12.3284 2 11.5V10.9146ZM12 11V11.5C12 11.7761 11.7761 12 11.5 12H3.5C3.22386 12 3 11.7761 3 11.5V11H12Z"
    fill="currentColor"
  ></path>
</symbol>
<symbol viewBox="0 0 15 15" fill="none" id="rd/iconjar-logo">
  <path     fill-rule="evenodd"
    clip-rule="evenodd"
    d="M7.5 0.0032959C6.80473 0.0032959 6.24953 0.281106 6.25 0.749995C6.25 0.997258 6.42446 1.12014 6.57687 1.22749C6.69507 1.31074 6.8 1.38465 6.8 1.5C6.8 1.7071 6.06224 1.74264 5.19789 1.78427C3.97553 1.84314 2.5 1.91421 2.5 2.5C2.5 2.77614 2.72386 3 3 3H12C12.2761 3 12.5 2.77614 12.5 2.5C12.5 1.91421 11.0245 1.84314 9.80211 1.78427C8.93776 1.74264 8.2 1.7071 8.2 1.5C8.2 1.38465 8.30493 1.31074 8.42313 1.22749C8.57554 1.12014 8.75 0.997258 8.75 0.749995C8.75047 0.281106 8.19527 0.0032959 7.5 0.0032959ZM2.89451 6.12266C2.25806 6.52471 1.90417 7.31118 2.02473 8.0556L2.83588 12.4772C3.00993 13.3562 3.7629 14 4.66061 14H10.3373C11.2354 14 11.9884 13.3562 12.1625 12.4772L12.9736 8.05607C13.089 7.32358 12.8284 6.53276 12.1331 6.09373C11.7283 5.83013 11.6412 5.33231 12.1331 5.12796C12.8284 4.86435 12.6948 4 12 4H10.3001H6.80005H2.99996C2.30469 4 2.19878 4.89328 2.89451 5.15689C3.38642 5.33231 3.29939 5.83013 2.89451 6.12266ZM8.20006 6.25C8.20006 5.81769 8.08572 5.37615 7.90635 5L4.11093 5C4.20626 5.21312 4.2419 5.43889 4.22904 5.65521C4.19522 6.22412 3.84587 6.66899 3.48016 6.93322L3.45492 6.95146L3.42858 6.9681C3.13407 7.15414 2.95801 7.53989 3.01058 7.88749L3.81797 12.2886C3.90513 12.7154 4.26148 13 4.66061 13H10.3373C10.737 13 11.0932 12.7153 11.1804 12.2886L11.9874 7.8898C12.048 7.48247 11.8954 7.12631 11.5992 6.93927L11.5875 6.93184L11.5875 6.93176C11.1947 6.67602 10.8331 6.22785 10.7986 5.64798C10.7846 5.412 10.8264 5.19397 10.9112 5H9.05517C9.01987 5.14611 9.00006 5.31201 9.00006 5.5C9.00006 5.9745 9.21679 6.37127 9.44367 6.78662C9.69284 7.24278 9.95425 7.72136 9.95425 8.34993C9.95425 9.2698 9.49868 9.84205 8.62189 9.84205C8.13206 9.84205 7.57818 9.46097 7.57818 8.75781C7.57818 8.35279 7.71558 8.01646 7.86121 7.65998C8.0254 7.25806 8.20006 6.83051 8.20006 6.25Z"
    fill="currentColor"
  ></path>
</symbol>
<symbol viewBox="0 0 24 24" fill="currentColor" id="rm/arrow-down-box-fill"><path d="M4 3C3.44772 3 3 3.44772 3 4V20C3 20.5523 3.44772 21 4 21H20C20.5523 21 21 20.5523 21 20V4C21 3.44772 20.5523 3 20 3H4ZM11.9996 17.656L6.0498 11.7062H10.9996V6.34229H12.9996V11.7062H17.9493L11.9996 17.656Z"></path></symbol>
</defs>
</svg>
