<?xml version="1.0" encoding="UTF-8"?>
<svg xmlns="http://www.w3.org/2000/svg" xmlns:xlink="http://www.w3.org/1999/xlink" width="0" height="0">
<defs>
<symbol viewBox="0 0 15 15" fill="none" id="rd/camera">
  <path     fill-rule="evenodd"
    clip-rule="evenodd"
    d="M2 3C1.44772 3 1 3.44772 1 4V11C1 11.5523 1.44772 12 2 12H13C13.5523 12 14 11.5523 14 11V4C14 3.44772 13.5523 3 13 3H2ZM0 4C0 2.89543 0.895431 2 2 2H13C14.1046 2 15 2.89543 15 4V11C15 12.1046 14.1046 13 13 13H2C0.895431 13 0 12.1046 0 11V4ZM2 4.25C2 4.11193 2.11193 4 2.25 4H4.75C4.88807 4 5 4.11193 5 4.25V5.75454C5 5.89261 4.88807 6.00454 4.75 6.00454H2.25C2.11193 6.00454 2 5.89261 2 5.75454V4.25ZM12.101 7.58421C12.101 9.02073 10.9365 10.1853 9.49998 10.1853C8.06346 10.1853 6.89893 9.02073 6.89893 7.58421C6.89893 6.14769 8.06346 4.98315 9.49998 4.98315C10.9365 4.98315 12.101 6.14769 12.101 7.58421ZM13.101 7.58421C13.101 9.57302 11.4888 11.1853 9.49998 11.1853C7.51117 11.1853 5.89893 9.57302 5.89893 7.58421C5.89893 5.5954 7.51117 3.98315 9.49998 3.98315C11.4888 3.98315 13.101 5.5954 13.101 7.58421Z"
    fill="currentColor"
  ></path>
</symbol>
<symbol viewBox="0 0 15 15" fill="none" id="rd/card-stack">
  <path     fill-rule="evenodd"
    clip-rule="evenodd"
    d="M2 3.5C2 3.22386 2.22386 3 2.5 3H12.5C12.7761 3 13 3.22386 13 3.5V9.5C13 9.77614 12.7761 10 12.5 10H2.5C2.22386 10 2 9.77614 2 9.5V3.5ZM2 10.9146C1.4174 10.7087 1 10.1531 1 9.5V3.5C1 2.67157 1.67157 2 2.5 2H12.5C13.3284 2 14 2.67157 14 3.5V9.5C14 10.1531 13.5826 10.7087 13 10.9146V11.5C13 12.3284 12.3284 13 11.5 13H3.5C2.67157 13 2 12.3284 2 11.5V10.9146ZM12 11V11.5C12 11.7761 11.7761 12 11.5 12H3.5C3.22386 12 3 11.7761 3 11.5V11H12Z"
    fill="currentColor"
  ></path>
</symbol>
<symbol viewBox="0 0 24 24" fill="currentColor" id="rm/arrow-down-box-fill"><path d="M4 3C3.44772 3 3 3.44772 3 4V20C3 20.5523 3.44772 21 4 21H20C20.5523 21 21 20.5523 21 20V4C21 3.44772 20.5523 3 20 3H4ZM11.9996 17.656L6.0498 11.7062H10.9996V6.34229H12.9996V11.7062H17.9493L11.9996 17.656Z"></path></symbol>
</defs>
</svg>